<?xml version="1.0" standalone="no"?>
<!DOCTYPE svg PUBLIC "-//W3C//DTD SVG 20010904//EN"
 "http://www.w3.org/TR/2001/REC-SVG-20010904/DTD/svg10.dtd">
<svg version="1.0" xmlns="http://www.w3.org/2000/svg"
 width="312.000000pt" height="269.000000pt" viewBox="0 0 312.000000 269.000000"
 preserveAspectRatio="xMidYMid meet">

<g transform="translate(0.000000,269.000000) scale(0.100000,-0.100000)"
fill="#000000" stroke="none">
<path d="M1333 2640 c-265 -53 -484 -170 -673 -360 -187 -187 -300 -396 -357
-660 -25 -119 -25 -401 0 -520 76 -356 284 -660 591 -864 204 -136 317 -182
518 -212 185 -27 385 -12 568 43 302 91 615 335 735 573 48 96 86 239 84 319
0 35 -1 35 -12 11 -84 -187 -138 -281 -186 -324 -29 -26 -27 -4 4 42 14 20 25
45 25 55 0 9 16 84 36 165 19 81 39 192 44 246 9 101 3 236 -10 236 -4 0 -15
-30 -25 -67 -37 -139 -111 -315 -168 -400 -25 -37 -34 -41 -39 -16 -2 13 -11
5 -30 -27 -140 -233 -458 -441 -716 -468 -107 -12 -304 4 -358 28 -24 11 -50
20 -58 20 -9 0 -16 4 -16 9 0 4 -42 26 -92 47 -488 204 -691 872 -413 1358 25
43 45 85 45 94 0 8 24 41 53 72 28 31 68 74 87 95 65 71 208 154 350 201 82
27 93 28 275 28 181 0 194 -1 275 -28 263 -87 453 -241 583 -471 33 -60 41
-78 78 -180 9 -27 18 -41 18 -30 0 11 -13 54 -30 95 -17 41 -39 96 -49 123
-42 108 -193 274 -332 364 -71 46 -202 110 -315 153 -34 14 -58 27 -52 31 16
10 -122 29 -209 29 -97 0 -241 -24 -334 -56 -39 -13 -74 -21 -79 -18 -5 3 -26
-5 -48 -18 -42 -24 -70 -17 -36 9 39 29 131 71 210 96 116 36 230 50 362 45
117 -6 137 3 48 20 l-50 10 40 1 c141 3 395 -81 548 -183 30 -20 60 -36 67
-36 21 0 224 -212 272 -285 26 -39 63 -103 83 -143 40 -79 54 -90 31 -25 -40
114 -121 236 -233 349 -46 47 -82 88 -79 91 8 8 133 -121 185 -190 44 -58 70
-72 36 -20 -71 109 -326 343 -433 397 -140 70 -262 110 -450 146 -126 24 -247
24 -369 0z"/>
</g>
</svg>
